<?xml version="1.0" encoding="UTF-8" standalone="no"?>
<!-- Created with Inkscape (http://www.inkscape.org/) -->

<svg
   xmlns:dc="http://purl.org/dc/elements/1.1/"
   xmlns:cc="http://creativecommons.org/ns#"
   xmlns:rdf="http://www.w3.org/1999/02/22-rdf-syntax-ns#"
   xmlns:svg="http://www.w3.org/2000/svg"
   xmlns="http://www.w3.org/2000/svg"
   xmlns:sodipodi="http://sodipodi.sourceforge.net/DTD/sodipodi-0.dtd"
   xmlns:inkscape="http://www.inkscape.org/namespaces/inkscape"
   width="64px"
   height="64px"
   id="svg5911"
   version="1.1"
   inkscape:version="0.48.1 "
   inkscape:export-filename="F:\Proyectos\Android\WLANAudit\res\drawable-mdpi\ic_action_refresh.png"
   inkscape:export-xdpi="45"
   inkscape:export-ydpi="45"
   sodipodi:docname="ic_action_autoscan.svg">
  <defs
     id="defs5913" />
  <sodipodi:namedview
     id="base"
     pagecolor="#ffffff"
     bordercolor="#666666"
     borderopacity="1.0"
     inkscape:pageopacity="0.0"
     inkscape:pageshadow="2"
     inkscape:zoom="5.5"
     inkscape:cx="32"
     inkscape:cy="25.751915"
     inkscape:current-layer="layer1"
     showgrid="false"
     inkscape:document-units="px"
     inkscape:grid-bbox="true"
     showguides="true"
     inkscape:guide-bbox="true"
     inkscape:snap-grids="true"
     inkscape:snap-to-guides="true"
     inkscape:snap-global="false"
     inkscape:window-width="1366"
     inkscape:window-height="706"
     inkscape:window-x="-8"
     inkscape:window-y="-8"
     inkscape:window-maximized="1">
    <inkscape:grid
       type="xygrid"
       id="grid5932" />
    <sodipodi:guide
       orientation="1,0"
       position="4,62.545455"
       id="guide5934" />
    <sodipodi:guide
       orientation="1,0"
       position="61.090909,69.636364"
       id="guide5938" />
    <sodipodi:guide
       orientation="0,1"
       position="-51.090909,56.909091"
       id="guide5942" />
    <sodipodi:guide
       orientation="0,1"
       position="-52.545455,6.9090909"
       id="guide5944" />
  </sodipodi:namedview>
  <metadata
     id="metadata5916">
    <rdf:RDF>
      <cc:Work
         rdf:about="">
        <dc:format>image/svg+xml</dc:format>
        <dc:type
           rdf:resource="http://purl.org/dc/dcmitype/StillImage" />
        <dc:title />
      </cc:Work>
    </rdf:RDF>
  </metadata>
  <g
     id="layer1"
     inkscape:label="Layer 1"
     inkscape:groupmode="layer">
    <g
       transform="matrix(1.266666,0,0,1.2626256,-157.40467,-522.36801)"
       id="Eye"
       style="fill:#ffffff">
      <path
         style="fill:#ffffff"
         inkscape:connector-curvature="0"
         d="m 171.528,434.115 c 0,0 -6.989,-9.163 -21.251,-9.163 -14.147,0 -21.749,9.026 -21.749,9.026 -1.499,1.779 -1.408,4.332 0.203,5.67 1.03,0.857 2.444,1.014 3.726,0.557 1.861,5.881 7.033,13.826 17.499,13.826 10.356,0 15.564,-7.965 17.467,-13.842 1.227,0.461 2.59,0.352 3.626,-0.426 1.675,-1.255 1.891,-3.798 0.479,-5.648 z m -21.572,14.838 c -10.499,0 -12.888,-10.887 -13.137,-12.199 1.82,-1.318 4.67,-2.906 8.527,-3.691 l 2.076,4.291 -5.483,-1.883 c -0.325,0.873 -0.512,1.813 -0.512,2.799 0,4.441 3.601,8.039 8.04,8.039 4.44,0 8.039,-3.598 8.039,-8.039 0,-1.936 -0.685,-3.711 -1.824,-5.1 3.444,0.801 5.93,2.258 7.526,3.475 -0.33,1.548 -3.021,12.308 -13.252,12.308 z"
         id="path5667" />
    </g>
  </g>
</svg>
